<?xml version="1.0" standalone="no"?>
<!DOCTYPE svg PUBLIC "-//W3C//DTD SVG 20010904//EN"
 "http://www.w3.org/TR/2001/REC-SVG-20010904/DTD/svg10.dtd">
<svg version="1.0" xmlns="http://www.w3.org/2000/svg"
 width="197.000000pt" height="49.000000pt" viewBox="0 0 197.000000 49.000000"
 preserveAspectRatio="xMidYMid meet">

<g transform="translate(0.000000,49.000000) scale(0.100000,-0.100000)"
fill="#000000" stroke="none">
<path d="M32 474 c-22 -15 -31 -54 -12 -54 6 0 22 7 35 16 25 16 45 12 44 -9
0 -7 -19 -26 -42 -42 -34 -25 -43 -37 -45 -68 l-3 -37 65 0 c64 0 92 14 65 31
-8 5 -31 9 -51 9 -49 0 -48 13 2 45 46 29 65 66 50 94 -18 34 -71 41 -108 15z"/>
<path d="M204 475 c-75 -52 -44 -205 41 -205 34 0 70 30 77 65 l5 20 8 -20
c26 -65 92 -86 133 -42 49 52 33 179 -24 193 -38 10 -74 -4 -92 -36 -18 -32
-32 -39 -32 -17 0 24 -40 57 -68 57 -15 0 -37 -7 -48 -15z m60 -31 c35 -14 27
-116 -10 -131 -22 -8 -54 31 -54 66 0 27 24 71 40 71 4 0 15 -3 24 -6z m170 0
c35 -14 27 -116 -10 -131 -22 -8 -54 31 -54 66 0 27 24 71 40 71 4 0 15 -3 24
-6z"/>
<path d="M505 480 c-10 -17 5 -30 34 -30 27 0 29 -3 35 -52 3 -29 6 -70 6 -91
0 -31 3 -38 18 -35 15 3 17 15 16 91 l-1 87 39 0 c21 0 41 0 46 0 4 0 5 -33 4
-74 -5 -94 7 -108 87 -104 44 2 57 7 59 21 3 14 -5 17 -52 17 -53 0 -56 1 -56
25 0 24 3 25 55 25 48 0 55 2 55 20 0 17 -7 20 -50 20 -47 0 -50 2 -50 25 0
24 3 25 55 25 48 0 55 3 55 20 0 18 -8 19 -175 19 -102 0 -177 -4 -180 -9z"/>
<path d="M874 477 c-3 -8 -4 -54 -2 -103 3 -74 6 -89 20 -92 12 -2 17 5 20 28
l3 31 48 -31 c26 -16 52 -30 57 -30 20 0 9 38 -16 55 l-26 17 22 15 c33 23 24
71 -19 100 -37 25 -99 31 -107 10z m87 -47 c24 -20 24 -20 5 -35 -35 -27 -56
-19 -56 20 0 41 16 45 51 15z"/>
<path d="M1126 433 c-19 -32 -39 -63 -44 -68 -14 -17 -32 -77 -26 -86 11 -18
32 -8 44 21 10 24 18 30 44 30 26 0 34 -5 43 -30 10 -26 43 -43 43 -22 0 15
-41 195 -46 204 -11 17 -24 6 -58 -49z m32 -62 c-15 -5 -19 4 -11 24 6 18 7
18 13 -1 4 -10 3 -21 -2 -23z"/>
<path d="M1264 477 c-3 -8 -3 -56 -2 -108 3 -91 4 -94 28 -97 75 -11 139 43
107 91 -10 15 -12 29 -6 38 14 23 11 38 -16 64 -27 28 -102 36 -111 12z m75
-36 c19 -12 6 -41 -19 -41 -15 0 -20 7 -20 25 0 26 14 31 39 16z m16 -94 c20
-15 15 -21 -27 -31 -25 -6 -28 -4 -28 19 0 28 24 34 55 12z"/>
<path d="M1420 475 c0 -9 16 -41 36 -72 31 -48 34 -60 25 -80 -15 -33 -14 -53
4 -53 17 0 105 170 105 202 0 37 -31 17 -53 -34 l-23 -52 -32 52 c-31 50 -62
69 -62 37z"/>
<path d="M1605 480 c-10 -17 5 -30 34 -30 27 0 29 -3 35 -52 3 -29 6 -70 6
-91 0 -31 3 -38 18 -35 15 3 17 15 16 91 l-1 87 39 0 c21 0 41 0 46 0 4 0 5
-33 4 -74 -5 -94 7 -108 87 -104 44 2 57 7 59 21 3 14 -5 17 -52 17 -53 0 -56
1 -56 25 0 24 3 25 55 25 48 0 55 2 55 20 0 17 -7 20 -50 20 -47 0 -50 2 -50
25 0 24 3 25 55 25 48 0 55 3 55 20 0 18 -8 19 -175 19 -102 0 -177 -4 -180
-9z"/>
<path d="M674 227 c-2 -7 -3 -58 -2 -113 l3 -99 34 -3 c52 -5 79 6 96 38 29
55 -13 119 -70 108 -24 -5 -25 -3 -25 38 0 33 -4 44 -15 44 -9 0 -18 -6 -21
-13z m100 -130 c9 -15 7 -21 -9 -33 -27 -20 -49 -14 -53 15 -6 41 40 54 62 18z"/>
<path d="M1534 201 c-6 -37 -9 -41 -35 -41 -42 0 -69 -32 -69 -80 0 -50 27
-70 93 -68 l47 1 2 93 c1 52 2 102 2 111 1 10 -7 19 -16 21 -14 3 -19 -6 -24
-37z m-9 -116 c0 -23 -5 -31 -21 -33 -30 -4 -48 21 -34 48 18 33 55 23 55 -15z"/>
<path d="M220 213 c0 -9 7 -39 15 -67 8 -28 20 -70 25 -93 15 -61 40 -58 63 7
10 28 22 48 26 45 5 -2 12 -25 16 -50 7 -49 28 -67 49 -44 24 26 88 201 77
212 -19 19 -36 -2 -61 -73 -26 -80 -31 -77 -45 23 -7 53 -30 73 -49 41 -6 -10
-18 -41 -27 -69 l-16 -50 -12 45 c-6 25 -16 55 -21 68 -11 26 -40 30 -40 5z"/>
<path d="M1008 210 c-54 -42 -33 -100 36 -100 40 0 64 -21 43 -39 -25 -20 -72
-24 -86 -7 -8 9 -20 16 -27 16 -21 0 -17 -48 5 -60 45 -24 140 -2 155 35 19
51 -13 95 -68 95 -34 0 -55 14 -41 28 4 4 27 6 51 5 36 -1 44 2 44 17 0 35
-73 42 -112 10z"/>
<path d="M1605 210 c-4 -7 -3 -16 3 -22 14 -14 45 -2 40 15 -6 16 -34 21 -43
7z"/>
<path d="M1187 203 c-4 -3 -7 -14 -7 -24 0 -9 -9 -19 -20 -22 -28 -7 -25 -26
5 -37 22 -8 25 -15 25 -60 0 -44 3 -51 18 -48 13 2 18 15 20 55 2 41 7 52 22
56 26 7 26 27 0 34 -11 3 -23 16 -26 29 -6 23 -23 31 -37 17z"/>
<path d="M530 140 c-19 -19 -25 -43 -21 -80 5 -42 86 -66 126 -37 29 22 10 38
-36 31 -50 -8 -50 6 1 28 28 12 40 23 40 37 0 41 -75 56 -110 21z m55 -30 c-3
-5 -14 -10 -23 -10 -15 0 -15 2 -2 10 20 13 33 13 25 0z"/>
<path d="M1280 96 c0 -77 10 -88 77 -84 l48 3 3 68 c2 54 0 68 -13 73 -23 9
-27 1 -33 -56 -4 -40 -8 -50 -23 -50 -16 0 -19 8 -19 55 0 48 -2 55 -20 55
-18 0 -20 -7 -20 -64z"/>
<path d="M1607 153 c-4 -3 -7 -37 -7 -75 0 -61 2 -69 18 -66 14 3 18 16 20 76
2 56 0 72 -11 72 -7 0 -17 -3 -20 -7z"/>
<path d="M1697 148 c-55 -42 -32 -138 34 -138 55 0 88 79 53 128 -17 25 -60
30 -87 10z m61 -54 c3 -23 -21 -49 -38 -39 -11 7 -14 48 -3 59 13 13 38 1 41
-20z"/>
</g>
</svg>
